HIERARCHY
ROOT Hips
{
	OFFSET 0.000000 0.000000 0.000000 
	CHANNELS 6 Xposition Yposition Zposition Zrotation Yrotation Xrotation
	JOINT LeftUpLeg
	{
		OFFSET 1.363060 -1.794630 0.839290 
		CHANNELS 3 Zrotation Yrotation Xrotation
		JOINT LeftLeg
		{
			OFFSET 2.448110 -6.726130 0.000000 
			CHANNELS 3 Zrotation Yrotation Xrotation
			JOINT LeftFoot
			{
				OFFSET 2.562200 -7.039590 0.000000 
				CHANNELS 3 Zrotation Yrotation Xrotation
				JOINT LeftToeBase
				{
					OFFSET 0.157640 -0.433110 2.322550 
					CHANNELS 3 Zrotation Yrotation Xrotation
					End Site
					{
						OFFSET 0.000000 0.000000 0.000000 
					}
				}
			}
		}
	}
	JOINT RightUpLeg
	{
		OFFSET -1.305520 -1.794630 0.839290 
		CHANNELS 3 Zrotation Yrotation Xrotation
		JOINT RightLeg
		{
			OFFSET -2.542530 -6.985550 0.000000 
			CHANNELS 3 Zrotation Yrotation Xrotation
			JOINT RightFoot
			{
				OFFSET -2.568260 -7.056230 0.000000 
				CHANNELS 3 Zrotation Yrotation Xrotation
				JOINT RightToeBase
				{
					OFFSET -0.164730 -0.452590 2.363150 
					CHANNELS 3 Zrotation Yrotation Xrotation
					End Site
					{
						OFFSET 0.000000 0.000000 0.000000 
					}
				}
			}
		}
	}
	JOINT Spine
	{
		OFFSET 0.028270 2.035590 -0.193380 
		CHANNELS 3 Zrotation Yrotation Xrotation
		JOINT Spine1
		{
			OFFSET 0.056720 2.048850 -0.042750 
			CHANNELS 3 Zrotation Yrotation Xrotation
			JOINT Neck1
			{
				OFFSET -0.054170 1.746240 0.172020 
				CHANNELS 3 Zrotation Yrotation Xrotation
				JOINT Head
				{
					OFFSET 0.104070 1.761360 -0.123970 
					CHANNELS 3 Zrotation Yrotation Xrotation
					End Site
					{
						OFFSET 0.000000 0.000000 0.000000 
					}
				}
			}
			JOINT LeftArm
			{
				OFFSET 3.362410 1.200890 -0.311210 
				CHANNELS 3 Zrotation Yrotation Xrotation
				JOINT LeftForeArm
				{
					OFFSET 4.983000 -0.000000 -0.000000 
					CHANNELS 3 Zrotation Yrotation Xrotation
					JOINT LeftHand
					{
						OFFSET 3.483560 -0.000000 -0.000000 
						CHANNELS 3 Zrotation Yrotation Xrotation
						JOINT LeftHandIndex1
						{
							OFFSET 0.715260 -0.000000 -0.000000 
							CHANNELS 3 Zrotation Yrotation Xrotation
							End Site
							{
								OFFSET 0.000000 0.000000 0.000000 
							}
						}
					}
				}
			}
			JOINT RightArm
			{
				OFFSET -3.136600 1.374050 -0.404650 
				CHANNELS 3 Zrotation Yrotation Xrotation
				JOINT RightForeArm
				{
					OFFSET -5.241900 -0.000000 -0.000000 
					CHANNELS 3 Zrotation Yrotation Xrotation
					JOINT RightHand
					{
						OFFSET -3.444170 -0.000000 -0.000000 
						CHANNELS 3 Zrotation Yrotation Xrotation
						JOINT RightHandIndex1
						{
							OFFSET -0.622530 -0.000000 -0.000000 
							CHANNELS 3 Zrotation Yrotation Xrotation
							End Site
							{
								OFFSET 0.000000 0.000000 0.000000 
							}
						}
					}
				}
			}
		}
	}
}
MOTION
Frames: 7
Frame Time: 0.041667
-0.221696 17.381386 0.779191 -5.698970 -1.422177 5.983577 -10.214325 -14.871097 -11.893131 1.940000 9.006810 29.533717 0.863927 -0.611380 -12.853233 0.896200 -6.033700 -16.882200 29.680585 11.430519 -5.535287 -1.732833 -5.567279 21.813365 -0.825104 2.551317 -12.621419 -0.270500 3.345600 -9.242300 -2.052357 0.739234 3.577394 2.877191 0.842958 -1.502214 5.116982 -10.692094 19.073569 4.465400 -6.456900 13.989100 -31.632608 -6.033833 105.848179 113.605115 -53.743196 -81.721086 3.459248 -0.869363 0.231555 -7.125000 0.000000 0.000000 60.245111 17.311338 -25.438187 -141.311304 40.906721 -100.193827 -2.949780 -2.127153 -48.059868 7.125000 0.000000 0.000000 
-0.208069 17.382200 0.778174 -5.684492 -1.550495 5.993157 -10.350811 -14.890088 -11.802686 1.920613 8.974310 29.462160 0.843144 -0.451760 -12.957334 0.872500 -5.955400 -16.655100 29.536609 11.412686 -5.596939 -1.735467 -5.570383 21.802783 -0.839087 2.724220 -12.583330 -0.269000 3.336400 -9.216700 -1.401337 0.820662 3.600329 2.975845 0.894497 -1.505449 4.805585 -10.563977 19.276532 4.340500 -6.438100 14.056400 -32.010984 -5.976138 105.833185 113.109409 -53.835574 -81.286301 3.490738 -0.848858 0.771860 -7.125000 0.000000 0.000000 60.093218 17.491381 -25.220359 -141.442382 40.838303 -100.302828 -2.957028 -2.135323 -47.856358 7.125000 0.000000 0.000000 
-0.192103 17.385047 0.778276 -5.717461 -1.671513 6.004544 -10.460026 -14.898820 -11.708029 1.900077 8.937117 29.373239 0.821279 -0.338371 -12.961010 0.879000 -5.977100 -16.718100 29.436526 11.462432 -5.609597 -1.733620 -5.570688 21.784384 -0.834157 2.753069 -12.510950 -0.254700 3.246900 -8.967000 -0.624935 0.882134 3.493626 3.055273 0.936005 -1.563848 4.502437 -10.395126 19.521845 4.233500 -6.409800 14.132000 -32.394531 -5.826303 105.984634 112.542007 -53.950684 -80.775075 3.548440 -0.813596 1.540825 -7.125000 0.000000 0.000000 60.025447 17.608601 -24.979820 -141.570001 40.774705 -100.411943 -2.955867 -2.130634 -47.714364 7.125000 0.000000 0.000000 
-0.174916 17.389318 0.780818 -5.742281 -1.780730 6.006983 -10.584913 -14.909288 -11.610197 1.885732 8.908475 29.314779 0.799114 -0.219119 -12.973861 0.849600 -5.878600 -16.432700 29.340648 11.537632 -5.577738 -1.728772 -5.567518 21.760000 -0.828099 2.712867 -12.495801 -0.278600 3.395100 -9.380700 0.047541 0.979041 3.448224 3.090272 0.991079 -1.577616 4.290322 -10.306098 19.863393 4.152100 -6.407300 14.294900 -32.664774 -5.726996 106.113021 112.045186 -54.039603 -80.332954 3.572971 -0.801173 1.956096 -7.125000 0.000000 0.000000 60.072536 17.791290 -24.906048 -141.728852 40.688149 -100.547011 -2.948355 -2.125061 -47.752502 7.125000 0.000000 0.000000 
-0.158136 17.392471 0.782852 -5.654502 -1.818843 6.012752 -10.809423 -14.989726 -11.522600 1.880578 8.885971 29.289772 0.796473 -0.183957 -13.028528 0.795900 -5.694600 -15.900800 29.122969 11.571109 -5.601955 -1.726495 -5.572976 21.751753 -0.829758 2.697189 -12.530484 -0.314700 3.606500 -9.972100 0.618315 1.050246 3.504372 3.171081 1.033935 -1.524149 4.147764 -10.244236 20.219958 4.094000 -6.406000 14.494100 -32.861136 -5.641375 106.101238 111.594912 -54.093968 -79.966819 3.494355 -0.870458 2.040196 -7.125000 0.000000 0.000000 60.203148 18.043727 -24.915219 -141.887583 40.598116 -100.682449 -2.936749 -2.128193 -47.948091 7.125000 0.000000 0.000000 
-0.141255 17.390844 0.782954 -5.675082 -1.858677 6.005962 -10.923329 -15.062656 -11.461115 1.880796 8.870344 29.278171 0.802349 -0.213346 -13.038521 0.734200 -5.474200 -15.266300 29.014315 11.607071 -5.657350 -1.732968 -5.596397 21.803077 -0.826338 2.657393 -12.540693 -0.325400 3.666400 -10.139800 1.383963 1.094911 3.599837 3.219631 1.063711 -1.453926 4.010124 -10.150245 20.391953 4.055400 -6.394000 14.577300 -33.100038 -5.527980 105.956007 111.192347 -54.121572 -79.672549 3.313085 -0.980564 1.861589 -7.125000 0.000000 0.000000 60.346122 18.319244 -24.847785 -142.013310 40.528655 -100.790425 -2.935326 -2.120458 -48.077405 7.125000 0.000000 0.000000 
-0.122035 17.387183 0.783462 -5.740270 -1.927672 6.009524 -11.006638 -15.099936 -11.404836 1.873521 8.855741 29.259298 0.776484 -0.064920 -13.072018 0.747600 -5.522900 -15.406300 28.937918 11.676058 -5.733973 -1.751190 -5.641705 21.918503 -0.834709 2.710622 -12.568885 -0.323500 3.655700 -10.110100 2.259997 1.135940 3.576496 3.238250 1.089031 -1.423930 4.002398 -10.071479 20.693102 4.095700 -6.397800 14.763000 -33.341288 -5.351708 105.887629 110.885224 -54.158439 -79.435093 3.228920 -1.043058 1.482033 -7.125000 0.000000 0.000000 60.486238 18.567018 -24.796313 -142.161414 40.446407 -100.923261 -2.898164 -2.130254 -48.429410 7.125000 0.000000 0.000000 
